<svg xmlns="http://www.w3.org/2000/svg" xmlns:xlink="http://www.w3.org/1999/xlink" viewBox="0 0 841.33 248.84"><defs><style>.cls-1{fill:url(#未命名的渐变_78);}.cls-2{fill:url(#未命名的渐变_78-2);}.cls-3{fill:url(#未命名的渐变_78-3);}.cls-4{fill:url(#未命名的渐变_78-4);}.cls-5{fill:url(#未命名的渐变_78-5);}</style><linearGradient id="未命名的渐变_78" x1="113.07" x2="113.07" y2="247.32" gradientUnits="userSpaceOnUse"><stop offset="0" stop-color="#00f4ff"/><stop offset="1" stop-color="#2990e2"/></linearGradient><linearGradient id="未命名的渐变_78-2" x1="226.13" y1="14.43" x2="226.13" y2="244.8" xlink:href="#未命名的渐变_78"/><linearGradient id="未命名的渐变_78-3" x1="354.32" y1="8.8" x2="354.32" y2="248.84" xlink:href="#未命名的渐变_78"/><linearGradient id="未命名的渐变_78-4" x1="540.84" y1="18.87" x2="540.84" y2="241.56" xlink:href="#未命名的渐变_78"/><linearGradient id="未命名的渐变_78-5" x1="708.8" y1="13.37" x2="708.8" y2="232.75" xlink:href="#未命名的渐变_78"/></defs><g id="图层_2" data-name="图层 2"><g id="图层_1-2" data-name="图层 1"><path class="cls-1" d="M157.42,0l23.7,1.19h23.7q6.88,0,10.06,6.36l-1.32,1.19c4.14.26,6.22,1.5,6.22,3.71v1.32H206.14V15H211v2.52h-2.38l1.19,1.32L208.66,20v2.52l6.22,1.19V25l-1.32,1.19v1.33q7.55,0,7.54,9.93c3.36.44,5,1.68,5,3.71v2.51l-73.74,8.74q-9.4,0-15,23.7Q71.49,204.55,58.65,239.77q-7.55,7.54-12.44,7.55l-5-5q-7.43,0-7.42-6.23l-1.32,1.33H31.25Q31,234.21,18.8,226.13L15,219.78q0-25.15,60-133.59L85,62.49,38.66,69.91q-26.22,0-34.95-23.7L0,31.25V28.73q0-7.95,9.93-15H26.21Q65.41,13.77,157.42,0Z"/><path class="cls-2" d="M257.25,14.43h7.28q22,0,34.16,19.46v4.9q0,3.45-23.17,41.44l-53.62,111q-10.47,19.2-14.7,22L206,211.83h-1.19l-2.52,6.09h-2.38l2.38-8.47-13.37,22h-1.19l-1.19-1.19v-1.33l1.19-1.19v-2.38h-1.19l-4.9,11h-2.52V235l2.52-6.09-19.6,15.89-3.57-2.38,1.19-1.33v-3.57L156,239.9l-2.38-2.38q0-16,87.78-208.53Q246.65,14.44,257.25,14.43ZM233.81,173v2h1.06v-2Z"/><path class="cls-3" d="M466.92,8.8h2.51q5.56,0,14.83,8.61l1.19,1.19h1.2l-1.2,4.9,1.2,14.83q-2,19.72-13.51,19.73h-7.41q-48.19,0-120.62,33.23v2.38h1.2q89.49,7.41,98.5,24.63,8.61,5,8.6,17.34-3.3,40.52-9.79,40.51a241.66,241.66,0,0,1-61.57,33.23q-50.7,17.35-139.15,39.46l-1.19-1.19v-1.33l8.61-3.57v-2.52l-13.51,2.52v-1.33c0-1.85,2-3.09,6.09-3.7v-2.39h-3.7v-2.51h2.51v-1.19l-7.41-2.52,1.19-1.19v-3.71c-3.26,0-4.9-1.23-4.9-3.7l-1.19,1.19h-2.52v-1.19l1.2-1.2v-1.19h-2.39q0-2.51-3.7-2.51v-1.19q0-6.22,99.69-34.56,66.19-22.91,76.39-30.72-104.73-6.87-104.72-22.24Q281,119,281,103.6q0-14.16,14.83-33.23Q385.89,8.81,466.92,8.8ZM246.61,227.92v1.19h2.52v-1.19Z"/><path class="cls-4" d="M618.16,18.87q0,4.5,4.5,4.5v2.25h-3.44v1.19q5.68,0,5.69,2.25v1.19h-4.5c0,2.3,2.25,3.44,6.75,3.44V36h-3.44v1h13.64l10.32,5.7-1.19,1.19V45c3.8,0,5.69.79,5.69,2.38q0,4.11-42.1,9-14.3,0-54.41,15.89l-12.58,25h1.19Q550.37,95,579.5,93.8l2.25,3.45-3.44,1.19V99.5q9.13,0,9.13,2.25l-5.69,2.38v1.06H584l-1.06,3.44q0,5.7,9,9.14v1.06L590.88,120v1.06q5.7,0,5.7,2.38v1.06q0,3.44-71.63,18.14-8.87,0-22.77,34.16L584,163.18v2.25h1.19l5.69-1.19q1.46,5.69,5.7,5.69v3.44c-1.86,0-3.75,1.15-5.7,3.45H588.5v1.05h6.89v2.39h-5.7l1.19,1.06v1.19l-1.19,1.06q16.81,0,18.14,5.69l-1.06,1.19q5.7.8,5.7,3.44-10.07,6.5-68.19,17-68.19,11.52-68.18,20.52-1.59,6-10.2,10.2h-1.19l-6.75-5.7h-2.38l-5.7,1.2c0-1.95-3.75-3.84-11.25-5.7l-3.44,1.06L434,231.36v-1.19l1.19-3.44h-2.25l-1.2,1.19h-1.05l-1.2-1.19v-1.06q9.4-33.76,84.08-190.92,0-11.38,15.88-13.63l44.36,1.19Z"/><path class="cls-5" d="M695.43,13.37q31.91,0,39.06,18.93,4.1,16.81,9.93,66.73l1.19,1.19q.66,7.82,3.31,7.82l35.62-4.51v2.25h1.19l17.74-1v2.11l-7.81,2.25v1.2h7.81l7.81-1.2v2.26q-11.38,4.5-17.74,4.5v2.25l5.56-1.19q7.68,2.25,7.68,4.5l5.69-1.19q22.24.66,22.24,4.5l-1.19,1.06,7.81,2.25v2.25Q826.24,138.1,779,143.65L759,147q14.43,56.67,14.43,76.92v4.37l-3.31,3.44h-1.19c-2.47,0-5-1.14-7.68-3.44v3.44H759v-2.25l-3.44,2.25-4.37-3.44-11.12,4.5-9-8.87q-5.56-9-16.68-65.8h-1.06q-70.17,19.33-70.17,30.19-4.51,2.78-26.75,34.42-7.68,9-12.31,9l-2.25-5.56-1.06,1.06h-1.06q-6.75-4-6.75-8.87l-1.06,1.06h-2.25v-2.25q-4.64,0-8.87-6.62-4.5,0-4.5-2.25v-7.81q0-12.45,26.74-41.18,11.38-18.93,36.81-52.43l37.86-66.72,7.68-22.38Q691.33,13.38,695.43,13.37Zm-8.87,108v1.06q18.93-4.91,18.94-6.62L702.19,98Q699.13,99.31,686.56,121.41ZM790.1,102.47h2.25v2.26H790.1Zm1.19,7.82v1.06h2.25v-1.06Z"/></g></g></svg>